<svg width="836" height="154" viewBox="0 0 836 154" fill="none" xmlns="http://www.w3.org/2000/svg">
<g filter="url(#filter0_dd_1_2547)">
<rect x="-1" y="65" width="80" height="80" rx="16" fill="white"/>
<rect x="-0.5" y="65.5" width="79" height="79" rx="15.5" stroke="#121417" stroke-opacity="0.1"/>
</g>
<path fill-rule="evenodd" clip-rule="evenodd" d="M32.6034 128.745C32.6034 129.56 31.9748 130.023 31.1985 129.776C20.8815 126.435 13.4014 116.612 13.4014 105.021C13.4014 93.4314 20.8815 83.6081 31.1985 80.2662C31.9748 80.0217 32.6034 80.4831 32.6034 81.2981V83.31C32.6034 83.8526 32.1893 84.4912 31.6801 84.6679C23.5175 87.7114 17.6702 95.6736 17.6702 105.008C17.6702 114.341 23.5175 122.305 31.6801 125.347C32.1893 125.538 32.6034 126.162 32.6034 126.707V128.745ZM41.1286 121.257C41.1286 121.856 40.647 122.345 40.0584 122.345H37.9304C37.3418 122.345 36.8602 121.856 36.8602 121.257V117.834C32.2032 117.196 29.9291 114.546 29.3133 110.945C29.2059 110.333 29.6875 109.776 30.3032 109.776H32.7387C33.2471 109.776 33.6755 110.144 33.7826 110.659C34.2378 112.806 35.4553 114.45 39.1883 114.45C41.9448 114.45 43.8991 112.888 43.8991 110.552C43.8991 108.214 42.7478 107.331 38.7067 106.651C32.7387 105.836 29.9155 104.001 29.9155 99.246C29.9155 95.5777 32.6457 92.7248 36.8737 92.113V88.7569C36.8737 88.1588 37.3557 87.6694 37.9439 87.6694H40.0719C40.6606 87.6694 41.1422 88.1588 41.1422 88.7569V92.2082C44.5812 92.8343 46.7623 94.8166 47.4719 98.1046C47.6053 98.7306 47.1237 99.3137 46.4951 99.3137H44.2465C43.7649 99.3137 43.3636 98.9873 43.2166 98.5121C42.6145 96.4207 41.1422 95.5242 38.5861 95.5242C35.7628 95.5242 34.3041 96.9097 34.3041 98.8523C34.3041 100.904 35.1343 101.936 39.4702 102.576C45.3303 103.391 48.3552 105.089 48.3552 110.158C48.3552 114.003 45.5447 117.114 41.1422 117.834V121.257H41.1286ZM45.3982 128.743C45.3982 129.558 46.0276 130.021 46.8031 129.775C57.1201 126.419 64.5875 116.61 64.6003 105.048C64.6003 93.4576 57.1201 83.6347 46.8031 80.2908C46.0276 80.0341 45.3982 80.5093 45.3982 81.3243V83.3347C45.3982 83.8792 45.8131 84.5036 46.3215 84.6942C54.4841 87.7376 60.3315 95.6998 60.3315 105.034C60.3315 114.368 54.4841 122.33 46.3215 125.373C45.7596 125.578 45.3982 126.135 45.3982 126.733V128.743Z" fill="#2775CA"/>
<g filter="url(#filter1_dd_1_2547)">
<rect x="95" y="45" width="100" height="100" rx="16" fill="white"/>
<rect x="95.5" y="45.5" width="99" height="99" rx="15.5" stroke="#121417" stroke-opacity="0.1"/>
</g>
<path fill-rule="evenodd" clip-rule="evenodd" d="M169.222 88.7286C170.228 82.0037 165.108 78.3888 158.107 75.9773L160.378 66.8678L154.833 65.4861L152.622 74.3557C151.165 73.9921 149.667 73.6495 148.179 73.3099L150.406 64.3817L144.865 63L142.592 72.1065C141.386 71.8318 140.201 71.5604 139.051 71.2744L139.058 71.2457L131.411 69.3361L129.936 75.2588C129.936 75.2588 134.05 76.2018 133.963 76.2599C136.209 76.8203 136.615 78.3068 136.547 79.485L133.96 89.8628C134.115 89.9021 134.315 89.9589 134.537 90.0478L134.376 90.0076L134.376 90.0076C134.239 89.9734 134.097 89.9378 133.951 89.9028L130.324 104.441C130.05 105.123 129.353 106.147 127.783 105.758C127.839 105.839 123.753 104.752 123.753 104.752L121 111.1L128.216 112.899C129.006 113.097 129.787 113.3 130.56 113.502C131.1 113.643 131.637 113.782 132.17 113.919L129.875 123.133L135.414 124.514L137.686 115.398C139.199 115.809 140.668 116.188 142.105 116.545L139.841 125.618L145.386 127L147.681 117.803C157.136 119.593 164.246 118.871 167.239 110.319C169.65 103.433 167.119 99.4609 162.144 96.8708C165.768 96.0352 168.497 93.6521 169.224 88.7293L169.223 88.7281L169.222 88.7286ZM156.546 106.477C154.973 112.794 145.084 110.182 140.56 108.987L140.56 108.987C140.153 108.88 139.789 108.784 139.479 108.707L142.524 96.5C142.902 96.5944 143.364 96.6981 143.888 96.8155C148.568 97.8658 158.156 100.018 156.546 106.477H156.546ZM144.826 91.184C148.598 92.1907 156.827 94.3868 158.26 88.6448H158.26C159.724 82.7723 151.727 81.0017 147.821 80.137C147.382 80.0397 146.994 79.9539 146.677 79.875L143.917 90.9459C144.177 91.0109 144.483 91.0925 144.826 91.184Z" fill="#F7931A"/>
<g filter="url(#filter2_dd_1_2547)">
<rect x="211" y="25" width="120" height="120" rx="16" fill="white"/>
<rect x="211.5" y="25.5" width="119" height="119" rx="15.5" stroke="#121417" stroke-opacity="0.1"/>
</g>
<path fill-rule="evenodd" clip-rule="evenodd" d="M288.344 115H293.013L280.65 95.5505H288.74V92.1379H278.48L274.142 85.3129H288.738V81.9004H274.213L291.648 55H287.181L270.698 80.2679L254.557 55H249.796L266.996 81.9004H252.431V85.3129H267.142L262.741 92.1379H252.431L252.43 95.5505H260.541L248 115H252.631L265.308 95.5505H275.857L288.344 115ZM273.666 92.1379L270.622 87.3963L267.532 92.1379H273.666Z" fill="#1F2149"/>
<g filter="url(#filter3_dd_1_2547)">
<rect x="347" y="5" width="140" height="140" rx="16" fill="white"/>
<rect x="347.5" y="5.5" width="139" height="139" rx="15.5" stroke="#121417" stroke-opacity="0.1"/>
</g>
<path d="M416.485 30.2007L415.884 32.2421V91.4749L416.485 92.0745L443.98 75.8222L416.485 30.2007Z" fill="#343434"/>
<path d="M416.495 30.2007L389 75.8222L416.495 92.0745V63.3246V30.2007Z" fill="#8C8C8C"/>
<path d="M416.486 97.2986L416.147 97.7116V118.811L416.486 119.8L443.997 81.0547L416.486 97.2986Z" fill="#3C3C3B"/>
<path d="M416.495 119.8V97.2986L389 81.0547L416.495 119.8Z" fill="#8C8C8C"/>
<path d="M416.497 92.0776L443.992 75.8253L416.497 63.3276V92.0776Z" fill="#141414"/>
<path d="M389 75.8253L416.495 92.0776V63.3276L389 75.8253Z" fill="#393939"/>
<g filter="url(#filter4_dd_1_2547)">
<rect x="503" y="25" width="120" height="120" rx="16" fill="white"/>
<rect x="503.5" y="25.5" width="119" height="119" rx="15.5" stroke="#121417" stroke-opacity="0.1"/>
</g>
<path d="M558.992 108.476C572.178 108.724 585.123 108.966 598.309 109.457C597.826 111.413 597.335 113.121 597.094 114.835C596.355 117.282 595.623 119.488 595.14 121.935C594.891 123.158 594.401 123.4 593.186 123.4H530.176C532.378 114.835 534.573 106.768 536.769 98.2033C533.351 99.4269 530.417 100.65 527 102.116C527.98 98.4522 528.954 95.2724 530.176 91.8437C530.176 91.3598 530.908 91.1109 531.398 91.1109C533.6 90.1362 536.037 89.3966 538.232 88.415C538.964 88.1799 539.703 87.4472 539.703 86.7075L549.948 48.5564C550.196 47.0909 550.68 46.6001 552.392 46.6001H574.615C571.929 56.6235 569.485 66.6607 566.8 77.1749C570.707 75.4675 574.373 73.9951 578.522 72.5296C578.032 74.4859 577.3 76.1933 577.059 77.9077C576.569 81.8272 574.373 84.0254 570.466 85.007C568.761 85.4909 567.041 86.2236 565.336 86.9633C564.731 87.3256 564.228 87.8294 563.873 88.4288C562.161 95.0304 560.448 101.39 558.985 107.992V108.483L558.992 108.476Z" fill="#345D9D"/>
<g filter="url(#filter5_dd_1_2547)">
<rect x="639" y="45" width="100" height="100" rx="16" fill="white"/>
<rect x="639.5" y="45.5" width="99" height="99" rx="15.5" stroke="#121417" stroke-opacity="0.1"/>
</g>
<path d="M695.497 97.6777V97.6692C695.132 97.6947 693.249 97.8049 689.059 97.8049C685.709 97.8049 683.36 97.7116 682.529 97.6692V97.6777C669.646 97.1095 660.036 94.8704 660.036 92.1818C660.036 89.5017 669.654 87.2542 682.529 86.6859V95.4471C683.368 95.5065 685.786 95.6507 689.119 95.6507C693.122 95.6507 695.124 95.4811 695.497 95.4471V86.6944C708.354 87.2711 717.938 89.5102 717.938 92.1903C717.938 94.8704 708.346 97.1095 695.497 97.6862M695.497 85.7869V77.9502H713.435V66H664.599V77.9502H682.537V85.7869C667.958 86.4569 657 89.3406 657 92.801C657 96.2613 667.966 99.145 682.537 99.8235V124.945H695.505V99.8235C710.059 99.1535 721 96.2698 721 92.8094C721 89.3575 710.059 86.4654 695.505 85.7954" fill="#26A17B"/>
<g filter="url(#filter6_dd_1_2547)">
<rect x="755" y="65" width="80" height="80" rx="16" fill="white"/>
<rect x="755.5" y="65.5" width="79" height="79" rx="15.5" stroke="#121417" stroke-opacity="0.1"/>
</g>
<path fill-rule="evenodd" clip-rule="evenodd" d="M808.028 90.8621C805.978 85.7676 801.109 85.5128 795.215 86.5318L793.165 79.3994L788.808 80.673L790.858 87.5507C790.443 87.6539 789.985 87.7989 789.503 87.9518C788.795 88.1764 788.033 88.418 787.27 88.5696L785.22 81.4372L780.864 82.7109L782.914 89.8432C782.401 89.9706 781.953 90.0979 781.504 90.2253C781.056 90.3526 780.607 90.48 780.095 90.6074L774.201 92.6452L775.482 97.2303C775.482 97.2303 778.814 96.2114 778.557 96.2114C780.351 95.7019 781.12 96.4661 781.632 97.485L783.939 105.636H784.451L783.939 105.891L787.27 117.354C787.27 117.863 787.27 118.882 785.989 119.391L782.914 120.41L783.426 125.76L789.064 124.231L792.139 123.467L794.19 130.599L798.546 129.326L796.496 122.193C797.777 121.939 798.802 121.684 800.084 121.175L802.134 128.307L806.49 127.033L804.44 119.901C811.616 117.354 816.229 114.042 814.947 106.91C813.922 101.306 810.591 99.5228 805.978 99.7775C808.541 97.2303 809.566 94.683 808.028 90.8621ZM806.489 108.195C807.845 112.91 800.637 115.052 796.804 116.192C796.288 116.345 795.834 116.48 795.47 116.601L792.651 106.921C793.055 106.821 793.561 106.672 794.139 106.502C797.96 105.378 804.931 103.327 806.489 108.195ZM792.078 102.362C795.142 101.497 801.747 99.6311 800.333 95.1803C799.174 90.5716 792.771 92.6336 789.664 93.6345C789.336 93.74 789.045 93.8338 788.801 93.9066L791.363 102.567C791.569 102.506 791.81 102.438 792.078 102.362Z" fill="#8DC351"/>
<defs>
<filter id="filter0_dd_1_2547" x="-8" y="60" width="94" height="94" filterUnits="userSpaceOnUse" color-interpolation-filters="sRGB">
<feFlood flood-opacity="0" result="BackgroundImageFix"/>
<feColorMatrix in="SourceAlpha" type="matrix" values="0 0 0 0 0 0 0 0 0 0 0 0 0 0 0 0 0 0 127 0" result="hardAlpha"/>
<feMorphology radius="1" operator="erode" in="SourceAlpha" result="effect1_dropShadow_1_2547"/>
<feOffset dy="2"/>
<feGaussianBlur stdDeviation="4"/>
<feColorMatrix type="matrix" values="0 0 0 0 0.0705882 0 0 0 0 0.0784314 0 0 0 0 0.0901961 0 0 0 0.08 0"/>
<feBlend mode="normal" in2="BackgroundImageFix" result="effect1_dropShadow_1_2547"/>
<feColorMatrix in="SourceAlpha" type="matrix" values="0 0 0 0 0 0 0 0 0 0 0 0 0 0 0 0 0 0 127 0" result="hardAlpha"/>
<feMorphology radius="2" operator="erode" in="SourceAlpha" result="effect2_dropShadow_1_2547"/>
<feOffset dy="2"/>
<feGaussianBlur stdDeviation="2"/>
<feColorMatrix type="matrix" values="0 0 0 0 0.0705882 0 0 0 0 0.0784314 0 0 0 0 0.0901961 0 0 0 0.08 0"/>
<feBlend mode="normal" in2="effect1_dropShadow_1_2547" result="effect2_dropShadow_1_2547"/>
<feBlend mode="normal" in="SourceGraphic" in2="effect2_dropShadow_1_2547" result="shape"/>
</filter>
<filter id="filter1_dd_1_2547" x="88" y="40" width="114" height="114" filterUnits="userSpaceOnUse" color-interpolation-filters="sRGB">
<feFlood flood-opacity="0" result="BackgroundImageFix"/>
<feColorMatrix in="SourceAlpha" type="matrix" values="0 0 0 0 0 0 0 0 0 0 0 0 0 0 0 0 0 0 127 0" result="hardAlpha"/>
<feMorphology radius="1" operator="erode" in="SourceAlpha" result="effect1_dropShadow_1_2547"/>
<feOffset dy="2"/>
<feGaussianBlur stdDeviation="4"/>
<feColorMatrix type="matrix" values="0 0 0 0 0.0705882 0 0 0 0 0.0784314 0 0 0 0 0.0901961 0 0 0 0.08 0"/>
<feBlend mode="normal" in2="BackgroundImageFix" result="effect1_dropShadow_1_2547"/>
<feColorMatrix in="SourceAlpha" type="matrix" values="0 0 0 0 0 0 0 0 0 0 0 0 0 0 0 0 0 0 127 0" result="hardAlpha"/>
<feMorphology radius="2" operator="erode" in="SourceAlpha" result="effect2_dropShadow_1_2547"/>
<feOffset dy="2"/>
<feGaussianBlur stdDeviation="2"/>
<feColorMatrix type="matrix" values="0 0 0 0 0.0705882 0 0 0 0 0.0784314 0 0 0 0 0.0901961 0 0 0 0.08 0"/>
<feBlend mode="normal" in2="effect1_dropShadow_1_2547" result="effect2_dropShadow_1_2547"/>
<feBlend mode="normal" in="SourceGraphic" in2="effect2_dropShadow_1_2547" result="shape"/>
</filter>
<filter id="filter2_dd_1_2547" x="204" y="20" width="134" height="134" filterUnits="userSpaceOnUse" color-interpolation-filters="sRGB">
<feFlood flood-opacity="0" result="BackgroundImageFix"/>
<feColorMatrix in="SourceAlpha" type="matrix" values="0 0 0 0 0 0 0 0 0 0 0 0 0 0 0 0 0 0 127 0" result="hardAlpha"/>
<feMorphology radius="1" operator="erode" in="SourceAlpha" result="effect1_dropShadow_1_2547"/>
<feOffset dy="2"/>
<feGaussianBlur stdDeviation="4"/>
<feColorMatrix type="matrix" values="0 0 0 0 0.0705882 0 0 0 0 0.0784314 0 0 0 0 0.0901961 0 0 0 0.08 0"/>
<feBlend mode="normal" in2="BackgroundImageFix" result="effect1_dropShadow_1_2547"/>
<feColorMatrix in="SourceAlpha" type="matrix" values="0 0 0 0 0 0 0 0 0 0 0 0 0 0 0 0 0 0 127 0" result="hardAlpha"/>
<feMorphology radius="2" operator="erode" in="SourceAlpha" result="effect2_dropShadow_1_2547"/>
<feOffset dy="2"/>
<feGaussianBlur stdDeviation="2"/>
<feColorMatrix type="matrix" values="0 0 0 0 0.0705882 0 0 0 0 0.0784314 0 0 0 0 0.0901961 0 0 0 0.08 0"/>
<feBlend mode="normal" in2="effect1_dropShadow_1_2547" result="effect2_dropShadow_1_2547"/>
<feBlend mode="normal" in="SourceGraphic" in2="effect2_dropShadow_1_2547" result="shape"/>
</filter>
<filter id="filter3_dd_1_2547" x="340" y="0" width="154" height="154" filterUnits="userSpaceOnUse" color-interpolation-filters="sRGB">
<feFlood flood-opacity="0" result="BackgroundImageFix"/>
<feColorMatrix in="SourceAlpha" type="matrix" values="0 0 0 0 0 0 0 0 0 0 0 0 0 0 0 0 0 0 127 0" result="hardAlpha"/>
<feMorphology radius="1" operator="erode" in="SourceAlpha" result="effect1_dropShadow_1_2547"/>
<feOffset dy="2"/>
<feGaussianBlur stdDeviation="4"/>
<feColorMatrix type="matrix" values="0 0 0 0 0.0705882 0 0 0 0 0.0784314 0 0 0 0 0.0901961 0 0 0 0.08 0"/>
<feBlend mode="normal" in2="BackgroundImageFix" result="effect1_dropShadow_1_2547"/>
<feColorMatrix in="SourceAlpha" type="matrix" values="0 0 0 0 0 0 0 0 0 0 0 0 0 0 0 0 0 0 127 0" result="hardAlpha"/>
<feMorphology radius="2" operator="erode" in="SourceAlpha" result="effect2_dropShadow_1_2547"/>
<feOffset dy="2"/>
<feGaussianBlur stdDeviation="2"/>
<feColorMatrix type="matrix" values="0 0 0 0 0.0705882 0 0 0 0 0.0784314 0 0 0 0 0.0901961 0 0 0 0.08 0"/>
<feBlend mode="normal" in2="effect1_dropShadow_1_2547" result="effect2_dropShadow_1_2547"/>
<feBlend mode="normal" in="SourceGraphic" in2="effect2_dropShadow_1_2547" result="shape"/>
</filter>
<filter id="filter4_dd_1_2547" x="496" y="20" width="134" height="134" filterUnits="userSpaceOnUse" color-interpolation-filters="sRGB">
<feFlood flood-opacity="0" result="BackgroundImageFix"/>
<feColorMatrix in="SourceAlpha" type="matrix" values="0 0 0 0 0 0 0 0 0 0 0 0 0 0 0 0 0 0 127 0" result="hardAlpha"/>
<feMorphology radius="1" operator="erode" in="SourceAlpha" result="effect1_dropShadow_1_2547"/>
<feOffset dy="2"/>
<feGaussianBlur stdDeviation="4"/>
<feColorMatrix type="matrix" values="0 0 0 0 0.0705882 0 0 0 0 0.0784314 0 0 0 0 0.0901961 0 0 0 0.08 0"/>
<feBlend mode="normal" in2="BackgroundImageFix" result="effect1_dropShadow_1_2547"/>
<feColorMatrix in="SourceAlpha" type="matrix" values="0 0 0 0 0 0 0 0 0 0 0 0 0 0 0 0 0 0 127 0" result="hardAlpha"/>
<feMorphology radius="2" operator="erode" in="SourceAlpha" result="effect2_dropShadow_1_2547"/>
<feOffset dy="2"/>
<feGaussianBlur stdDeviation="2"/>
<feColorMatrix type="matrix" values="0 0 0 0 0.0705882 0 0 0 0 0.0784314 0 0 0 0 0.0901961 0 0 0 0.08 0"/>
<feBlend mode="normal" in2="effect1_dropShadow_1_2547" result="effect2_dropShadow_1_2547"/>
<feBlend mode="normal" in="SourceGraphic" in2="effect2_dropShadow_1_2547" result="shape"/>
</filter>
<filter id="filter5_dd_1_2547" x="632" y="40" width="114" height="114" filterUnits="userSpaceOnUse" color-interpolation-filters="sRGB">
<feFlood flood-opacity="0" result="BackgroundImageFix"/>
<feColorMatrix in="SourceAlpha" type="matrix" values="0 0 0 0 0 0 0 0 0 0 0 0 0 0 0 0 0 0 127 0" result="hardAlpha"/>
<feMorphology radius="1" operator="erode" in="SourceAlpha" result="effect1_dropShadow_1_2547"/>
<feOffset dy="2"/>
<feGaussianBlur stdDeviation="4"/>
<feColorMatrix type="matrix" values="0 0 0 0 0.0705882 0 0 0 0 0.0784314 0 0 0 0 0.0901961 0 0 0 0.08 0"/>
<feBlend mode="normal" in2="BackgroundImageFix" result="effect1_dropShadow_1_2547"/>
<feColorMatrix in="SourceAlpha" type="matrix" values="0 0 0 0 0 0 0 0 0 0 0 0 0 0 0 0 0 0 127 0" result="hardAlpha"/>
<feMorphology radius="2" operator="erode" in="SourceAlpha" result="effect2_dropShadow_1_2547"/>
<feOffset dy="2"/>
<feGaussianBlur stdDeviation="2"/>
<feColorMatrix type="matrix" values="0 0 0 0 0.0705882 0 0 0 0 0.0784314 0 0 0 0 0.0901961 0 0 0 0.08 0"/>
<feBlend mode="normal" in2="effect1_dropShadow_1_2547" result="effect2_dropShadow_1_2547"/>
<feBlend mode="normal" in="SourceGraphic" in2="effect2_dropShadow_1_2547" result="shape"/>
</filter>
<filter id="filter6_dd_1_2547" x="748" y="60" width="94" height="94" filterUnits="userSpaceOnUse" color-interpolation-filters="sRGB">
<feFlood flood-opacity="0" result="BackgroundImageFix"/>
<feColorMatrix in="SourceAlpha" type="matrix" values="0 0 0 0 0 0 0 0 0 0 0 0 0 0 0 0 0 0 127 0" result="hardAlpha"/>
<feMorphology radius="1" operator="erode" in="SourceAlpha" result="effect1_dropShadow_1_2547"/>
<feOffset dy="2"/>
<feGaussianBlur stdDeviation="4"/>
<feColorMatrix type="matrix" values="0 0 0 0 0.0705882 0 0 0 0 0.0784314 0 0 0 0 0.0901961 0 0 0 0.08 0"/>
<feBlend mode="normal" in2="BackgroundImageFix" result="effect1_dropShadow_1_2547"/>
<feColorMatrix in="SourceAlpha" type="matrix" values="0 0 0 0 0 0 0 0 0 0 0 0 0 0 0 0 0 0 127 0" result="hardAlpha"/>
<feMorphology radius="2" operator="erode" in="SourceAlpha" result="effect2_dropShadow_1_2547"/>
<feOffset dy="2"/>
<feGaussianBlur stdDeviation="2"/>
<feColorMatrix type="matrix" values="0 0 0 0 0.0705882 0 0 0 0 0.0784314 0 0 0 0 0.0901961 0 0 0 0.08 0"/>
<feBlend mode="normal" in2="effect1_dropShadow_1_2547" result="effect2_dropShadow_1_2547"/>
<feBlend mode="normal" in="SourceGraphic" in2="effect2_dropShadow_1_2547" result="shape"/>
</filter>
</defs>
</svg>
